<svg width="12" height="13" viewBox="0 0 12 13" fill="none" xmlns="http://www.w3.org/2000/svg">
<path d="M6 12.5C7.5913 12.5 9.11742 11.8679 10.2426 10.7426C11.3679 9.61742 12 8.0913 12 6.5C12 4.9087 11.3679 3.38258 10.2426 2.25736C9.11742 1.13214 7.5913 0.5 6 0.5C4.4087 0.5 2.88258 1.13214 1.75736 2.25736C0.632141 3.38258 0 4.9087 0 6.5C0 8.0913 0.632141 9.61742 1.75736 10.7426C2.88258 11.8679 4.4087 12.5 6 12.5ZM5.0625 8.375H5.625V6.875H5.0625C4.75078 6.875 4.5 6.62422 4.5 6.3125C4.5 6.00078 4.75078 5.75 5.0625 5.75H6.1875C6.49922 5.75 6.75 6.00078 6.75 6.3125V8.375H6.9375C7.24922 8.375 7.5 8.62578 7.5 8.9375C7.5 9.24922 7.24922 9.5 6.9375 9.5H5.0625C4.75078 9.5 4.5 9.24922 4.5 8.9375C4.5 8.62578 4.75078 8.375 5.0625 8.375ZM6 3.5C6.19891 3.5 6.38968 3.57902 6.53033 3.71967C6.67098 3.86032 6.75 4.05109 6.75 4.25C6.75 4.44891 6.67098 4.63968 6.53033 4.78033C6.38968 4.92098 6.19891 5 6 5C5.80109 5 5.61032 4.92098 5.46967 4.78033C5.32902 4.63968 5.25 4.44891 5.25 4.25C5.25 4.05109 5.32902 3.86032 5.46967 3.71967C5.61032 3.57902 5.80109 3.5 6 3.5Z" fill="white" fill-opacity="0.6"/>
</svg>
